<?xml version='1.0' encoding='utf-8'?>
<svg xmlns="http://www.w3.org/2000/svg" version="1.1" width="887px" height="887px" viewBox="95 620 887 887"> <g id="layer1"> <g style="fill:rgb(255,255,255); fill-opacity:1.0; stroke-linejoin: miter"> <path d="M94.999,619.4035C94.84105,619.4035,94.689575,619.4662,94.57789,619.5779C94.4662,619.6896,94.40346,619.84106,94.40346,619.999L94.40446,1507.0C94.40446,1507.3289,94.67109,1507.5956,95.0,1507.5956L982.001,1507.5966C982.15894,1507.5966,982.3104,1507.5338,982.4221,1507.4221C982.5338,1507.3104,982.5965,1507.1589,982.5965,1507.001L982.5955,620.0C982.5955,619.6711,982.3289,619.4045,982.0,619.4045L94.999,619.4035 Z"/> </g> <g style="fill:rgb(230,110,184); fill-opacity:1.0; stroke-linejoin: miter"> <path d="M553.7304,1081.8163C553.7181,1081.816,553.7093,1081.8157,553.7043,1081.8156L553.6998,1081.8154C553.6969,1081.8153,553.69354,1081.815,553.6896,1081.8148C553.6168,1081.8083,553.5497,1081.7727,553.45013,1081.6014C553.4459,1081.5809,553.4448,1081.5663,553.44415,1081.5538L553.4443,1081.5532C553.41925,1081.0657,553.6379,1060.4701,553.7123,1056.0946C553.73193,1054.9369,553.7406,1053.9307,553.7396,1053.3881C553.7076,1053.4102,553.67377,1053.4341,553.6385,1053.4596L553.5978,1053.4836L553.5971,1053.4839L553.60425,1053.484C552.1082,1054.561,550.0318,1055.5769,548.19855,1056.1329L548.1987,1056.1329C547.40076,1056.3759,545.9486,1056.68,545.1661,1056.7789L545.16437,1056.7792C544.51483,1056.8572,543.3046,1056.8871,542.27924,1056.8696C541.76953,1056.861,541.30554,1056.8408,540.9622,1056.8076L540.9608,1056.8075C537.30914,1056.4337,533.8951,1054.992,531.00366,1052.6023L531.0031,1052.6018C530.1608,1051.9012,528.81836,1050.5256,528.2044,1049.7246L528.20416,1049.7245C524.9948,1045.53,523.69946,1040.343,524.57837,1035.1821L524.57837,1035.1821C525.29126,1031.0017,527.53174,1027.0352,530.7135,1024.3153C532.8479,1022.49084,535.2921,1021.1747,537.8732,1020.4579L537.8731,1020.4579C539.6629,1019.9601,541.1592,1019.7721,543.1821,1019.80664C543.2165,1019.80725,543.2285,1019.8074,543.231,1019.8074C543.23846,1019.8076,543.2511,1019.80774,543.272,1019.8082L543.2708,1019.8082C544.8258,1019.8347,545.26373,1019.8799,546.627,1020.1455L546.6281,1020.14575C549.194,1020.657,551.721,1021.7899,553.8793,1023.3948L553.8793,1023.3948C553.921,1023.4248,553.961,1023.45325,553.99854,1023.4796L554.0066,1023.47974C554.0494,1020.99036,554.1983,1008.4685,554.35406,993.51184L554.35406,993.5116C554.5343,976.7849,554.6961,962.22644,554.7146,961.1316L554.7483,959.1614C554.7496,959.0879,554.7808,959.0183,554.83484,958.96875C554.8855,958.9221,554.952,958.89685,555.0204,958.8981C555.025,958.8982,555.0296,958.8983,555.0342,958.8987L555.51013,958.93115L555.5117,958.93115C555.52875,958.93225,555.65344,958.9404,555.7047,958.9441L555.7047,958.9441C555.7597,958.94763,556.0723,958.9684,556.18823,958.97595C556.498,958.9961,556.997,959.0277,557.3617,959.0487L557.3635,959.0487C579.4613,960.47034,599.66614,965.83765,617.33264,974.9911L617.3332,974.9916L617.34106,974.9955L617.34106,974.9955C620.81354,976.7938,622.14685,977.56665,624.8347,979.3445C638.42035,988.3342,646.83923,994.7081,649.46814,998.0288L649.4688,998.02966C649.7436,998.3795,650.0406,998.6681,650.2968,998.85876L650.2967,998.85876C653.6781,1001.3065,660.70734,1010.19556,669.875,1023.574L669.8751,1023.5742C672.2838,1027.0962,675.3909,1032.993,677.8573,1038.735C682.971,1050.6428,686.1671,1063.4697,687.41125,1077.1033C687.5939,1079.103,687.73224,1080.9877,687.7086,1081.2728L687.70905,1081.2731C687.71063,1081.2731,687.7034,1081.3907,687.6224,1081.4692L687.49304,1081.5383C687.47125,1081.5431,687.4606,1081.5438,687.448,1081.5448L687.4449,1081.545C686.67346,1081.5936,633.94214,1081.6975,631.5083,1081.6559C631.4778,1081.6555,631.4277,1081.654,631.41943,1081.6534L631.41736,1081.6533C631.4119,1081.6531,631.39417,1081.6522,631.3709,1081.6472L631.2627,1081.5973C631.12964,1081.495,631.1534,1081.3168,631.15643,1081.3169L631.1571,1081.3169C631.1725,1081.1821,631.25885,1080.8861,631.3559,1080.597L631.3565,1080.5953C631.7642,1079.4094,632.0575,1078.2035,632.29,1076.7096L632.29126,1076.7023L632.29126,1076.7023C632.38354,1076.1239,632.4178,1075.5474,632.45056,1073.9855C632.4874,1071.8214,632.4434,1071.206,632.1273,1069.4846L632.1272,1069.4843C631.212,1064.4602,628.4349,1059.766,624.4634,1056.5209L624.46326,1056.5209C620.6864,1053.4404,616.2459,1051.7278,611.4523,1051.507L611.4526,1051.507C611.2554,1051.4978,611.02325,1051.4906,610.82635,1051.4872C607.16986,1051.4249,603.54584,1052.2659,600.2923,1053.9435L600.292,1053.9435C594.1306,1057.1138,589.7386,1063.1665,588.6401,1069.9941L588.6401,1069.9945C588.0639,1073.5521,588.34344,1077.0737,589.4799,1080.5343L589.4803,1080.5355C589.6212,1080.9713,589.7444,1081.361,589.7635,1081.4387C589.7666,1081.4513,589.7717,1081.4729,589.7727,1081.5039L589.5137,1081.5123L589.5054,1081.5122C589.5054,1081.5126,589.5052,1081.5127,589.50507,1081.5127L589.5413,1081.778C589.53253,1081.7792,589.5204,1081.7804,589.5119,1081.7806L589.51117,1081.7806C588.9784,1081.8047,554.73315,1081.8334,553.7304,1081.8163 Z"/> </g> <g style="fill:rgb(142,213,120); fill-opacity:1.0; stroke-linejoin: miter"> <path d="M552.2616,1214.7671C552.1137,1214.7645,551.9957,1214.6426,551.9982,1214.4948L552.0263,1212.85C552.04126,1211.967,552.1628,1200.8651,552.2914,1188.256C552.4209,1175.601,552.543,1164.4572,552.56165,1163.3644L552.5946,1161.4248C552.59607,1161.3424,552.63544,1161.2654,552.7012,1161.2157C552.7495,1161.1793,552.808,1161.1608,552.8672,1161.1616C552.88885,1161.1622,552.91046,1161.165,552.9318,1161.1707L553.8363,1161.4133C555.646,1161.8986,557.05365,1162.0925,559.08203,1162.1272C561.1365,1162.1621,562.6455,1162.006,564.45984,1161.5884L564.45953,1161.5884C568.5401,1160.6447,572.1148,1158.6625,575.1149,1155.6672L575.1151,1155.6672C578.74915,1152.0416,580.93256,1147.4281,581.476,1142.2297L581.476,1142.2295C581.584,1141.2004,581.571,1138.7527,581.46155,1137.7367C581.07117,1134.2776,579.9602,1131.117,578.14124,1128.254L578.1411,1128.254C574.72565,1122.8938,569.2979,1119.3143,563.0431,1118.2917L563.04193,1118.2913C562.0577,1118.126,561.2115,1118.0522,560.10626,1118.0334C559.8541,1118.029,559.6105,1118.0278,559.3283,1118.0287L559.3284,1118.0287C557.2868,1118.0363,555.9356,1118.201,554.09125,1118.6726L554.09094,1118.6726L553.35114,1118.8625C553.32745,1118.8687,553.3035,1118.8713,553.2799,1118.871C553.22186,1118.87,553.16516,1118.8502,553.11847,1118.8135C553.05304,1118.7617,553.0152,1118.6821,553.0167,1118.5986L553.03345,1117.6107C553.04285,1117.0603,553.11,1110.5963,553.18646,1103.2123C553.263,1095.8282,553.3385,1088.8671,553.3582,1087.7117L553.39374,1085.625C553.39624,1085.4791,553.515,1085.362,553.66095,1085.3616L570.90045,1085.33L570.9003,1085.33C580.39685,1085.3073,589.62134,1085.2928,591.48047,1085.2936L591.4806,1085.2936C593.3197,1085.2942,595.22217,1085.2894,595.68304,1085.2733L595.68555,1085.2732L596.0229,1085.2646L595.8119,1084.9922L595.8119,1084.9922C593.9496,1082.5845,592.72314,1079.9097,592.1973,1077.0875C591.9233,1075.6459,591.8614,1074.8583,591.8885,1073.2651C591.913,1071.4579,592.0629,1070.3835,592.4952,1068.7483L592.4952,1068.7479C593.873,1063.5692,597.48535,1059.2021,602.3157,1056.8732L602.31555,1056.8732C604.6622,1055.7372,606.58795,1055.227,609.31775,1055.0067L609.3196,1055.0066C609.4172,1054.9994,609.762,1055.0002,610.18396,1055.0073C610.4387,1055.0117,610.7676,1055.0193,611.0666,1055.0292L611.0671,1055.0292C612.15314,1055.0659,612.76794,1055.1139,613.3712,1055.2188L613.37146,1055.2188C616.71545,1055.7919,619.39404,1056.9846,622.08246,1059.1014L622.0826,1059.1014C622.8714,1059.7191,624.5226,1061.4156,625.1714,1062.2651L625.1755,1062.2706L625.17596,1062.2712L625.17615,1062.2712C626.58704,1064.1248,627.71704,1066.395,628.30994,1068.5419L628.31006,1068.5422C628.80835,1070.3556,629.00604,1071.9321,628.97266,1073.8954C628.94684,1075.7733,628.7021,1077.3125,628.1555,1079.0945L628.15564,1079.0945C627.54047,1081.119,626.3129,1083.4249,624.987,1085.0684L624.9864,1085.069C624.94293,1085.1223,624.902,1085.1735,624.8638,1085.2213L624.87256,1085.2214C625.3442,1085.224,626.09143,1085.225,626.90375,1085.221L626.9042,1085.2211C631.7381,1085.2054,686.80396,1085.0804,687.23553,1085.087L687.23663,1085.087L687.6785,1085.0953C687.8219,1085.0981,687.9377,1085.2133,687.9413,1085.3564L687.96674,1086.3817C687.96674,1086.3817,687.9814,1086.9408,687.98236,1086.9832C687.9927,1087.3763,687.9853,1087.08,687.9946,1087.4552C688.0537,1089.7954,688.01196,1090.2267,687.3559,1097.0841L687.1896,1098.8209L687.1896,1098.8208L686.35944,1107.5552L686.3551,1107.5846L686.04767,1109.0529L686.04767,1109.0526C682.99365,1123.7175,678.2881,1136.3657,671.4265,1148.3457L671.4265,1148.3458C670.8774,1149.303,670.0307,1150.5966,668.4712,1152.8577C662.3437,1161.7449,657.9355,1167.614,654.34247,1171.6864L654.34235,1171.6864C653.3521,1172.8068,651.2179,1174.874,650.6395,1175.261L650.6393,1175.261C650.438,1175.3955,649.7255,1176.0175,649.05347,1176.6483C634.80835,1190.0721,618.21674,1200.278,600.22565,1206.6769L600.2231,1206.6779L600.2212,1206.6785L600.22107,1206.6785C597.4586,1207.6633,594.01855,1208.7555,591.53625,1209.4387L591.5358,1209.4387C590.8806,1209.6227,590.0468,1209.8933,589.6827,1210.041L589.6827,1210.041C585.6164,1211.7174,575.22736,1213.1694,557.61957,1214.55L557.61896,1214.5502C555.181,1214.7356,554.1064,1214.7985,553.30493,1214.7848 Z"/> </g> <g style="fill:rgb(101,175,217); fill-opacity:1.0; stroke-linejoin: miter"> <path d="M546.7366,1214.7345C540.9575,1214.63,531.87744,1213.8733,527.794,1213.1439L527.79346,1213.1439L527.79175,1213.1437C520.6541,1211.8787,513.466,1210.1259,506.8999,1208.0535L506.89984,1208.0535C506.16254,1207.8202,505.3344,1207.588,505.06232,1207.5312L505.06226,1207.5312C500.57953,1206.6764,490.4416,1201.9735,475.84225,1194.005L475.84225,1194.005C471.49033,1191.6296,464.77322,1186.8695,459.38956,1182.3441L459.38962,1182.3441C453.6214,1177.4962,448.03394,1171.9406,443.08823,1166.1288L443.08817,1166.1288C440.78375,1163.4191,439.672,1161.9734,437.48666,1158.8301L437.4866,1158.83C421.38916,1135.6694,413.37344,1112.189,413.33554,1088.0161L413.33554,1088.0159L413.3344,1085.9153C413.3344,1085.8431,413.3633,1085.7743,413.41486,1085.7236C413.46606,1085.6736,413.53525,1085.6464,413.60696,1085.6475L413.60785,1085.6475L413.83612,1085.6522L413.84277,1085.6525C414.19336,1085.6482,427.04547,1085.6224,442.53683,1085.5944L442.5367,1085.5944C457.9763,1085.5602,470.6752,1085.5452,471.0096,1085.5509L471.01328,1085.5509C471.02304,1085.551,471.03995,1085.5525,471.04453,1085.553C471.10556,1085.5603,471.16214,1085.5887,471.2081,1085.6365C471.28104,1085.715,471.28403,1085.8259,471.28085,1085.8654L471.27884,1085.8654C471.26797,1085.9745,471.18845,1086.3312,471.09195,1086.7205C470.30978,1089.9216,470.25797,1093.3114,470.95438,1096.5936C472.89163,1105.712,480.50067,1112.6963,489.761,1113.8608L489.7608,1113.8608C490.52026,1113.9559,491.29645,1114.0096,492.08142,1114.023C494.6568,1114.0668,497.29095,1113.6755,499.54004,1112.8882L499.54053,1112.8878C500.8294,1112.4401,500.9527,1112.3951,501.93536,1111.9216L501.93622,1111.9213C504.18213,1110.8489,506.0418,1109.57,507.81763,1107.8715L507.8178,1107.8715C511.3993,1104.4514,513.6582,1100.0505,514.41766,1095.025C514.58746,1093.8846,514.641,1090.7357,514.51,1089.6029C514.3934,1088.6117,514.1365,1087.2313,513.9269,1086.4247L513.7601,1085.804C513.73865,1085.7247,513.75494,1085.6401,513.804,1085.5743C513.85315,1085.5085,513.9296,1085.469,514.0118,1085.4668L514.87775,1085.4448L514.87885,1085.4447C515.34827,1085.4346,522.63007,1085.4165,531.0066,1085.4058L531.2766,1085.4055C539.46014,1085.395,546.59045,1085.3805,546.7842,1085.3799L546.78394,1085.3799C547.0798,1085.3726,547.83154,1085.3729,548.4633,1085.3777L548.463,1085.3777L549.61096,1085.3849L549.6136,1085.385C549.6841,1085.3861,549.75146,1085.415,549.80084,1085.4656C549.8508,1085.5167,549.8782,1085.5857,549.87695,1085.6571L549.85547,1086.9275C549.844,1087.5972,549.77765,1094.0248,549.7069,1101.0621C549.63525,1108.1616,549.5533,1115.4955,549.51935,1117.4834C549.48615,1119.4371,549.4624,1121.9216,549.46857,1122.9891L549.4687,1122.9902L549.4714,1124.4474L549.47943,1124.4475C552.13586,1122.7994,554.8406,1121.8693,557.8146,1121.5884L557.81525,1121.5884C558.27045,1121.5443,558.96234,1121.5323,559.6725,1121.5446C560.6945,1121.5618,561.7989,1121.6287,562.3877,1121.7289L562.3882,1121.7289C566.1924,1122.3724,569.424,1123.9667,572.24854,1126.5851L572.2489,1126.5856C573.8381,1128.0646,575.11847,1129.7893,576.11115,1131.8108C577.10986,1133.8315,577.6178,1135.5002,577.9442,1137.8479L577.94434,1137.8489C578.0236,1138.4365,578.039,1138.9656,578.01447,1140.4076C577.9875,1141.9938,577.9632,1142.3427,577.8237,1143.123C577.0874,1147.2789,575.17065,1150.8546,572.1942,1153.6151L572.1942,1153.6151C570.6078,1155.0874,569.1927,1156.0371,567.1449,1156.9843L567.1449,1156.9843C564.69946,1158.1211,561.93646,1158.6963,559.1719,1158.6493C555.72845,1158.5906,552.1227,1157.4774,549.35944,1155.6211L549.3564,1155.6191L549.3533,1155.6171L549.35315,1155.6171C549.2747,1155.5643,549.20123,1155.5164,549.1352,1155.4745C549.1126,1156.5343,549.0757,1159.4967,549.04596,1162.9768C549.0081,1167.3934,548.8845,1179.64,548.7677,1190.4951C548.64984,1201.4502,548.5483,1210.9178,548.5318,1212.297L548.5317,1212.297L548.51294,1214.4946C548.5122,1214.5659,548.48315,1214.6342,548.4319,1214.684C548.38086,1214.7339,548.312,1214.7612,548.24054,1214.7599 Z"/> </g> <g style="fill:rgb(246,219,127); fill-opacity:1.0; stroke-linejoin: miter"> <path d="M492.39532,1110.5233C492.04492,1110.5173,491.70123,1110.5012,491.35126,1110.474L491.35144,1110.474C489.59467,1110.3387,488.63586,1110.1655,487.1023,1109.7045L487.10223,1109.7045C482.38312,1108.2839,478.22757,1104.7876,475.97342,1100.3517L475.97318,1100.3514C473.06223,1094.6083,473.35452,1087.6681,476.7369,1082.2184L476.7372,1082.218C476.78677,1082.1388,476.83273,1082.064,476.874,1081.9963C476.37375,1081.9946,475.50613,1081.9958,474.52744,1082.0027L474.52713,1082.0027C472.60623,1082.013,414.85962,1082.1388,413.77527,1082.1343L413.76855,1082.134L413.79028,1082.1323L413.7636,1082.1343L413.7569,1082.134C413.68484,1082.1328,413.61636,1082.1028,413.5669,1082.0504C413.44302,1081.9192,413.51236,1081.4027,413.69,1079.1177L413.68994,1079.1177C414.07816,1074.0353,415.10184,1067.0162,416.22012,1061.6605L416.22012,1061.6604C419.73563,1044.8643,426.29474,1029.6843,435.90894,1016.12634C436.92154,1014.69836,438.0408,1013.1903,439.22058,1011.66187L439.22052,1011.66187C439.62457,1011.1373,440.02115,1010.58203,440.11038,1010.4215L440.11032,1010.4215C441.9838,1007.0287,449.94772,999.3307,463.2355,988.00085C465.05112,986.4525,467.23947,984.82935,470.3228,982.74927C482.40784,974.5709,495.68378,968.46655,510.00226,964.4968L510.0022,964.4968C521.2874,961.3673,533.1737,959.547,545.85535,959.00635L545.85516,959.00635C547.9668,958.916,550.0045,958.86145,550.6856,958.87305C550.77203,958.8744,550.84576,958.8767,550.9001,958.88257L550.908,958.8827C550.905,958.88184,550.9055,958.8812,550.9091,958.8812C550.93274,958.8817,551.0872,958.90955,551.1505,959.0419L551.17584,959.1334C551.1761,959.1361,551.17694,959.1515,551.17706,959.15393L551.17694,959.156C551.18896,959.72876,550.5947,1016.56934,550.56946,1017.2119C550.5689,1017.22437,550.5689,1017.22437,550.5682,1017.2311C550.5622,1017.29456,550.5337,1017.3541,550.3969,1017.45605C550.3607,1017.4697,550.3247,1017.4751,550.2912,1017.4746C550.2726,1017.47424,550.25494,1017.4719,550.24567,1017.4708L550.244,1017.4708C550.1317,1017.4547,549.73694,1017.34924,549.3073,1017.21936L549.3069,1017.21924L549.30566,1017.2189L549.3058,1017.2189C547.2929,1016.61475,545.27997,1016.2954,543.2634,1016.26086C541.373,1016.2289,539.4725,1016.447,537.5559,1016.9164L537.5557,1016.9164C529.2441,1018.9457,522.80096,1025.7566,521.18866,1034.208L521.18823,1034.2102L521.1881,1034.2114C520.9216,1035.6256,520.8557,1036.3148,520.8283,1037.9215C520.7964,1039.801,520.8969,1040.9984,521.23224,1042.691L521.23236,1042.6913C521.8738,1045.9509,523.26996,1049.0132,525.4087,1051.8439C526.3529,1053.0907,528.2128,1054.9229,529.6128,1055.9708L529.61316,1055.9713C532.62646,1058.237,536.1676,1059.698,539.8528,1060.2096L539.8525,1060.2096C540.56445,1060.3075,541.73315,1060.376,542.76117,1060.3936C543.31494,1060.4031,543.8266,1060.3973,544.1921,1060.3744L544.19244,1060.3744C545.869,1060.2633,547.4411,1059.9923,549.00024,1059.552L549.0,1059.552L549.7754,1059.3264C549.8016,1059.3187,549.82825,1059.3154,549.85474,1059.3158C549.911,1059.3167,549.9662,1059.3354,550.01196,1059.37C550.07935,1059.4211,550.1188,1059.5013,550.11804,1059.5859L550.08167,1063.8888L550.08167,1063.8882C550.0656,1066.2994,550.019,1071.1649,549.9806,1074.8892L549.9806,1074.8894L549.90326,1081.586C549.90155,1081.7322,549.7832,1081.8499,549.63696,1081.8507L547.74,1081.8615L547.7394,1081.8615C544.7992,1081.8729,514.25305,1081.9299,511.73676,1081.93L511.73627,1081.93C510.5083,1081.9277,509.0954,1081.9344,508.60175,1081.9438L508.59967,1081.9438L508.17328,1081.9541L508.2019,1081.9988L508.2019,1081.9988C509.44812,1083.9163,510.385,1086.2856,510.80707,1088.5923L510.80707,1088.5928C511.06384,1090.0079,511.12756,1091.0021,511.0614,1092.7073L511.0614,1092.7074C510.9851,1094.6301,510.79688,1095.7913,510.2824,1097.4531C509.04272,1101.4695,506.37274,1105.0421,502.8875,1107.3754L502.8875,1107.3754C499.72992,1109.4878,496.05878,1110.5857,492.39532,1110.5233 Z"/> </g> <g style="fill:rgb(66,122,221); fill-opacity:1.0; stroke-linejoin: miter"> <path d="M635.8272,1357.2346L635.04266,1364.4781Q629.4644,1386.3687,602.3987,1399.4934Q575.14557,1412.6077,538.21405,1410.1287Q502.9677,1406.6641,481.83566,1389.8544Q475.06467,1384.4207,470.6813,1378.013L466.9971,1371.4254Q463.96103,1364.6262,463.92685,1357.2346Q464.84854,1334.5505,489.1011,1319.488Q513.3536,1304.4253,549.877,1303.8528Q586.4004,1304.4255,610.65295,1319.4883Q634.90546,1334.5505,635.8272,1357.2346"/> </g> <g style="fill:rgb(221,139,66); fill-opacity:1.0; stroke-linejoin: miter"> <path d="M517.78827,1200.416Q518.12555,1200.0139,518.2958,1199.6913Q520.02515,1197.259,518.4455,1194.562Q517.48334,1192.5812,510.7707,1187.9071L510.73926,1187.2749Q510.536,1182.1702,509.00238,1180.8328Q507.4187,1179.2067,503.58374,1178.172Q500.1009,1173.5415,497.07324,1172.1654Q495.09344,1171.3746,492.87115,1171.6241Q491.38263,1171.6539,486.71167,1172.9788Q483.25092,1172.5305,481.77582,1172.8383Q480.03125,1173.1764,479.18515,1173.6927Q477.48972,1174.6838,475.98947,1176.472Q473.4125,1179.5442,471.41208,1184.969Q467.93356,1193.6337,462.5599,1213.2595L483.96024,1230.5795L492.661,1220.176L501.37018,1219.7468Q505.5692,1210.8015,507.875,1208.0531Q508.04395,1207.8513,508.20288,1207.683Q509.36377,1206.3752,510.53845,1205.5753Q515.5682,1202.633,515.8087,1202.3466Q515.83496,1202.3153,515.80396,1202.3157Q517.1218,1201.2104,517.78827,1200.416 Z"/> </g> <g style="fill:rgb(247,250,255); fill-opacity:1.0; stroke-linejoin: miter"> <path d="M461.19467,1209.4391L473.28708,1219.1925L485.3799,1228.9452Q481.55167,1233.6913,477.72336,1238.438Q465.63022,1228.6862,453.53787,1218.933Q457.36624,1214.1868,461.19467,1209.4391 Z"/> </g> <g style="fill:rgb(66,122,221); fill-opacity:1.0; stroke-linejoin: miter"> <path d="M486.30215,1238.975L485.87625,1239.3932Q462.33957,1263.5791,467.7349,1297.7227Q470.73666,1313.6576,481.28177,1326.728Q490.47794,1337.7245,502.60254,1343.7247L472.8585,1375.3738Q458.74716,1366.0415,448.5362,1353.5547L440.61282,1342.543L434.2317,1330.781L429.40833,1318.4271L426.1579,1305.6412L424.4959,1292.5817L424.43768,1279.4078L425.99835,1266.2782L429.19363,1253.3519L434.0385,1240.7885L440.54904,1228.7461Q450.1993,1214.6777,454.01117,1211.4369L486.30215,1238.975 Z"/> </g> <g style="fill:rgb(221,139,66); fill-opacity:1.0; stroke-linejoin: miter"> <path d="M598.6038,1353.7952L598.2215,1359.4773Q595.50385,1376.6489,582.3176,1386.9442Q569.04016,1397.2314,551.04736,1395.287Q533.8756,1392.5693,523.58026,1379.3832Q520.28143,1375.1208,518.1459,1370.0944L516.351,1364.9269Q514.8718,1359.5934,514.85516,1353.795Q515.30414,1336.001,527.1199,1324.1853Q538.9355,1312.3695,556.7294,1311.9205Q574.5234,1312.3698,586.33905,1324.1855Q598.15466,1336.0011,598.6038,1353.7952"/> </g> <g style="fill:rgb(0,0,0); fill-opacity:1.0; stroke-linejoin: miter"> <path d="M555.45123,1325.6235Q555.0907,1325.6235,554.90576,1325.7421Q554.7586,1325.6775,554.55994,1325.6775Q553.28436,1325.6775,549.884,1328.3359Q547.6186,1330.5334,542.91534,1337.567Q541.5413,1339.4562,540.0456,1340.8759Q539.3125,1342.146,535.30865,1343.1832Q534.85486,1343.276,534.34644,1343.276Q529.44403,1343.276,519.468,1334.641Q515.1238,1343.1477,514.85516,1353.795Q514.8718,1359.5934,516.351,1364.9269L518.1459,1370.0944Q520.28143,1375.1208,523.58026,1379.3832Q533.8756,1392.5693,551.04736,1395.287Q553.9076,1395.5961,556.6485,1395.5961Q571.15076,1395.5962,582.3176,1386.9442Q595.50385,1376.6489,598.2215,1359.4773L598.6038,1353.7952Q598.26013,1340.1813,591.2633,1330.067Q590.38477,1331.9283,589.4525,1333.5879Q587.10443,1337.5695,583.9225,1338.7628Q583.2666,1339.1445,582.25104,1339.1445Q580.3794,1339.1445,577.286,1337.8478Q575.13324,1336.801,572.8244,1335.2527Q564.5948,1329.3706,561.22156,1327.5536Q556.9061,1325.6235,555.45123,1325.6235 Z"/> </g> <g style="fill:rgb(221,139,66); fill-opacity:1.0; stroke-linejoin: miter"> <path d="M586.4017,1200.4161Q586.0643,1200.014,585.89417,1199.6914Q584.1647,1197.259,585.74445,1194.5621Q586.7065,1192.5812,593.41907,1187.9072L593.45044,1187.275Q593.6537,1182.1703,595.1873,1180.8329Q596.771,1179.2067,600.6059,1178.1721Q604.08887,1173.5416,607.1166,1172.1655Q609.09644,1171.3748,611.3187,1171.6244Q612.80725,1171.654,617.4782,1172.9789Q620.9389,1172.5305,622.41406,1172.8384Q624.1585,1173.1764,625.0047,1173.6929Q626.7001,1174.684,628.20026,1176.4719Q630.7772,1179.5441,632.7777,1184.969Q636.25635,1193.6334,641.6299,1213.2594L620.2297,1230.5793L611.5288,1220.176L602.81964,1219.7468Q598.6206,1210.8016,596.3149,1208.053Q596.1458,1207.8514,595.98694,1207.6831Q594.8261,1206.3754,593.65137,1205.5753Q588.6216,1202.633,588.3811,1202.3466Q588.35486,1202.3153,588.38586,1202.3158Q587.068,1201.2106,586.4017,1200.4161 Z"/> </g> <g style="fill:rgb(247,250,255); fill-opacity:1.0; stroke-linejoin: miter"> <path d="M642.9953,1209.4391L630.90283,1219.1924L618.80994,1228.9451Q622.63806,1233.6912,626.4665,1238.438Q638.5597,1228.6862,650.65204,1218.933Q646.82367,1214.1868,642.9953,1209.4391 Z"/> </g> <g style="fill:rgb(66,122,221); fill-opacity:1.0; stroke-linejoin: miter"> <path d="M617.8876,1238.975L618.31354,1239.3931Q641.85046,1263.5789,636.455,1297.7225Q633.45325,1313.6577,622.90814,1326.7281Q613.71204,1337.7245,601.58734,1343.7249L631.33167,1375.3738Q645.4429,1366.0414,655.6539,1353.5546L663.5773,1342.5431L669.95825,1330.7814L674.7816,1318.4275L678.0322,1305.6416L679.6942,1292.582L679.7525,1279.4082L678.1919,1266.2786L674.9964,1253.3522L670.1514,1240.7885L663.641,1228.7466Q653.99054,1214.6777,650.1787,1211.4368L617.8876,1238.975 Z"/> </g> <g style="fill:rgb(66,46,29); fill-opacity:1.0; stroke-linejoin: miter"> <path d="M635.82733,820.29736L635.0427,813.0536Q629.4645,791.16296,602.3986,778.0382Q575.1456,764.9241,538.21387,767.40265Q502.96753,770.8672,481.83545,787.67725Q475.06445,793.11096,470.68103,799.5188L466.99677,806.1062Q463.96075,812.90564,463.92657,820.29724Q464.84833,842.98114,489.1009,858.04364Q513.35345,873.1065,549.8769,873.6789Q586.4004,873.10645,610.65295,858.0437Q634.9056,842.9811,635.82733,820.29736"/> </g> <g style="fill:rgb(116,64,25); fill-opacity:1.0; stroke-linejoin: miter"> <path d="M517.7882,977.11584Q518.1255,977.51794,518.2957,977.8406Q520.02515,980.2728,518.44543,982.96985Q517.48334,984.9507,510.77075,989.62476L510.73932,990.25696Q510.53613,995.3618,509.00244,996.699Q507.41882,998.3252,503.58374,999.35986Q500.10083,1003.99036,497.07324,1005.36646Q495.0935,1006.1572,492.87115,1005.90784Q491.3827,1005.87805,486.71167,1004.5532Q483.25098,1005.0016,481.77582,1004.6937Q480.0313,1004.3557,479.18512,1003.83923Q477.48975,1002.84814,475.9895,1001.0597Q473.4126,997.98755,471.41205,992.563Q467.9335,983.8983,462.55984,964.27246L483.9602,946.9523L492.6609,957.35583L501.37012,957.78503Q505.56915,966.73035,507.87488,969.47876Q508.04388,969.68054,508.20282,969.8489Q509.36365,971.1566,510.5384,971.95654Q515.5682,974.8988,515.80865,975.1853Q515.8349,975.21655,515.80396,975.2162Q517.12177,976.3214,517.7882,977.11584 Z"/> </g> <g style="fill:rgb(255,255,255); fill-opacity:1.0; stroke-linejoin: miter"> <path d="M461.19455,968.0928L473.287,958.33936L485.37982,948.5868Q481.55157,943.84045,477.72327,939.0939Q465.63013,948.8457,453.53778,958.599Q457.36612,963.3452,461.19455,968.0928 Z"/> </g> <g style="fill:rgb(66,46,29); fill-opacity:1.0; stroke-linejoin: miter"> <path d="M486.30206,938.55676L485.87616,938.1387Q462.33948,913.953,467.73468,879.80914Q470.7365,863.8742,481.28162,850.8038Q490.47778,839.80707,502.60248,833.8069L472.85815,802.15796Q458.7469,811.49023,448.53592,823.977L440.6126,834.9886L434.23148,846.7504L429.4082,859.10443L426.15775,871.8903L424.49573,884.9499L424.43744,898.12396L425.99823,911.2536L429.1935,924.18L434.03836,936.7432L440.5489,948.78564Q450.19922,962.854,454.0111,966.095L486.30206,938.55676 Z"/> </g> <g style="fill:rgb(116,64,25); fill-opacity:1.0; stroke-linejoin: miter"> <path d="M598.60394,823.7368L598.22156,818.0547Q595.50385,800.88293,582.31757,790.5874Q569.04004,780.3003,551.0472,782.2445Q533.8754,784.9623,523.58,798.14856Q520.28125,802.4109,518.14557,807.43726L516.35077,812.60474Q514.8716,817.93835,514.855,823.7367Q515.30396,841.5306,527.11975,853.3464Q538.9354,865.16205,556.7294,865.611Q574.5234,865.1621,586.33905,853.3463Q598.1547,841.53064,598.60394,823.7368"/> </g> <g style="fill:rgb(0,0,0); fill-opacity:1.0; stroke-linejoin: miter"> <path d="M555.45123,851.908Q555.0907,851.908,554.90576,851.7895Q554.75867,851.85406,554.5599,851.85406Q553.2843,851.85406,549.88385,849.19574Q547.61847,846.9981,542.91534,839.9648Q541.5413,838.07544,540.04553,836.6559Q539.3125,835.3856,535.30865,834.3485Q534.8548,834.2556,534.3464,834.2556Q529.444,834.2556,519.46783,842.8907Q515.12366,834.38403,514.855,823.7367Q514.8716,817.93835,516.35077,812.60474L518.14557,807.43726Q520.28125,802.4109,523.58,798.14856Q533.8754,784.9623,551.0472,782.2445Q553.9074,781.9354,556.64844,781.9354Q571.15063,781.9354,582.31757,790.5874Q595.50385,800.88293,598.22156,818.0547L598.60394,823.7368Q598.2603,837.3506,591.2633,847.46484Q590.38477,845.6034,589.4525,843.94385Q587.10455,839.9624,583.9226,838.76917Q583.26666,838.3873,582.2511,838.3873Q580.37946,838.3873,577.2861,839.6841Q575.1333,840.73083,572.8244,842.2792Q564.5948,848.16125,561.22156,849.97797Q556.9062,851.908,555.45123,851.908 Z"/> </g> <g style="fill:rgb(116,64,25); fill-opacity:1.0; stroke-linejoin: miter"> <path d="M586.4018,977.1161Q586.0644,977.5182,585.8943,977.8408Q584.1649,980.2732,585.7446,982.9701Q586.7067,984.95105,593.4193,989.625L593.4507,990.2572Q593.65393,995.36206,595.18756,996.6992Q596.77124,998.32556,600.60614,999.3601Q604.0891,1003.9907,607.11676,1005.3668Q609.0967,1006.1577,611.319,1005.9081Q612.8075,1005.8784,617.4784,1004.55334Q620.9391,1005.00183,622.41425,1004.69385Q624.15875,1004.35596,625.0049,1003.83936Q626.7003,1002.84827,628.2005,1001.05994Q630.77747,997.9878,632.77795,992.5631Q636.25653,983.89844,641.63,964.27246L620.22986,946.9525L611.529,957.3562L602.81976,957.7853Q598.6207,966.7306,596.315,969.47925Q596.14594,969.6808,595.98706,969.84924Q594.82623,971.15686,593.6515,971.9569Q588.62177,974.8993,588.38135,975.1858Q588.3551,975.21704,588.3861,975.21643Q587.06824,976.3218,586.4018,977.1161 Z"/> </g> <g style="fill:rgb(255,255,255); fill-opacity:1.0; stroke-linejoin: miter"> <path d="M642.99536,968.0928L630.90295,958.3396L618.8102,948.58704Q622.63824,943.8407,626.4666,939.094Q638.55994,948.8457,650.65216,958.59875Q646.8237,963.3451,642.99536,968.0928 Z"/> </g> <g style="fill:rgb(66,46,29); fill-opacity:1.0; stroke-linejoin: miter"> <path d="M617.8877,938.557L618.31366,938.1389Q641.8506,913.953,636.4552,879.8092Q633.4533,863.874,622.90814,850.8037Q613.71216,839.80725,601.5876,833.8071L631.33167,802.15796Q645.44293,811.49023,655.65405,823.9772L663.57745,834.9888L669.9583,846.75024L674.7817,859.1041L678.0322,871.8904L679.69434,884.9498L679.7526,898.1239L678.19196,911.25366L674.9965,924.1798L670.1515,936.7433L663.6411,948.7855Q653.9906,962.8541,650.17883,966.095L617.8877,938.557 Z"/> </g> <g style="fill:rgb(60,70,79); fill-opacity:1.0; stroke-linejoin: miter"> <path d="M283.6258,1172.498L276.3822,1171.7135Q254.49162,1166.1353,241.367,1139.0697Q228.25272,1111.8167,230.73135,1074.8854Q234.19583,1039.6388,251.00566,1018.50684Q256.4394,1011.73584,262.84717,1007.3524L269.4347,1003.66833Q276.23407,1000.6322,283.62564,1000.59814Q306.30954,1001.51965,321.37228,1025.7721Q336.43503,1050.0248,337.00745,1086.5479Q336.43506,1123.0714,321.37238,1147.3241Q306.3097,1171.5765,283.6258,1172.498"/> </g> <g style="fill:rgb(255,171,140); fill-opacity:1.0; stroke-linejoin: miter"> <path d="M440.4445,1054.4592Q440.8466,1054.7965,441.16913,1054.9668Q443.60144,1056.6962,446.29846,1055.1166Q448.27927,1054.1543,452.95334,1047.4418L453.58554,1047.4104Q458.69034,1047.2072,460.02762,1045.6735Q461.65378,1044.0898,462.68845,1040.2549Q467.31894,1036.772,468.69504,1033.7444Q469.48584,1031.7645,469.23636,1029.5422Q469.20663,1028.0537,467.88162,1023.3827Q468.33,1019.9221,468.02213,1018.447Q467.6841,1016.7024,467.1677,1015.8563Q466.1766,1014.1609,464.38828,1012.66077Q461.31607,1010.08374,455.89145,1008.0835Q447.22668,1004.60474,427.6009,999.2311L410.28067,1020.6312L420.68442,1029.3322L421.11362,1038.0413Q430.05893,1042.2402,432.80737,1044.5459Q433.00916,1044.715,433.17752,1044.8739Q434.4852,1046.0347,435.2851,1047.2094Q438.22745,1052.2393,438.51395,1052.4797Q438.54523,1052.5059,438.54483,1052.475Q439.65005,1053.7928,440.4445,1054.4592 Z"/> </g> <g style="fill:rgb(255,255,255); fill-opacity:1.0; stroke-linejoin: miter"> <path d="M431.4213,997.8657L421.6678,1009.95825L411.91507,1022.0509Q407.16888,1018.223,402.4222,1014.39465Q412.17416,1002.3014,421.92737,990.209Q426.67365,994.03735,431.4213,997.8657 Z"/> </g> <g style="fill:rgb(60,70,79); fill-opacity:1.0; stroke-linejoin: miter"> <path d="M401.8852,1022.9734L401.467,1022.5475Q377.28134,999.01086,343.13757,1004.40625Q327.20258,1007.40784,314.13217,1017.9529Q303.13568,1027.1489,297.13553,1039.2737L265.4864,1009.5294Q274.8187,995.41833,287.3054,985.2073L298.31696,977.28394L310.07895,970.9028L322.4328,966.0795L335.21878,962.8289L348.27832,961.1671L361.4524,961.10876L374.582,962.66943L387.50827,965.86475L400.07172,970.7096L412.11407,977.2202Q426.18256,986.8705,429.42343,990.68225L401.8852,1022.9734 Z"/> </g> <g style="fill:rgb(255,171,140); fill-opacity:1.0; stroke-linejoin: miter"> <path d="M287.06537,1135.2749L281.38327,1134.8926Q264.21158,1132.1748,253.91612,1118.9886Q243.6289,1105.7112,245.5732,1087.7183Q248.29094,1070.5466,261.47723,1060.2512Q265.73956,1056.9524,270.76602,1054.8169L275.9335,1053.0221Q281.2671,1051.5428,287.0653,1051.5262Q304.85938,1051.9752,316.67493,1063.7909Q328.49066,1075.6064,328.93967,1093.4005Q328.49066,1111.1943,316.67496,1123.0103Q304.85938,1134.8257,287.06537,1135.2749"/> </g> <g style="fill:rgb(97,33,21); fill-opacity:1.0; stroke-linejoin: miter"> <path d="M315.23672,1092.1224Q315.23672,1091.7618,315.1182,1091.5769Q315.18268,1091.4298,315.18268,1091.2311Q315.18265,1089.9554,312.52426,1086.5549Q310.3268,1084.2894,303.29337,1079.5865Q301.40402,1078.2124,299.9845,1076.7167Q298.7142,1075.9835,297.67712,1071.9797Q297.5843,1071.526,297.5843,1071.0175Q297.5843,1066.1152,306.2194,1056.1392Q297.71262,1051.7949,287.0653,1051.5262Q281.2671,1051.5428,275.9335,1053.0221L270.76602,1054.8169Q265.73956,1056.9524,261.47723,1060.2512Q248.29094,1070.5466,245.5732,1087.7183Q245.2641,1090.5785,245.26413,1093.3196Q245.26413,1107.8219,253.91612,1118.9886Q264.21158,1132.1748,281.38327,1134.8926L287.06537,1135.2749Q300.67914,1134.9313,310.7935,1127.9343Q308.93207,1127.0559,307.27255,1126.1237Q303.291,1123.7755,302.0977,1120.5936Q301.71594,1119.9376,301.71594,1118.9221Q301.71594,1117.0504,303.0126,1113.957Q304.05942,1111.8042,305.60782,1109.4955Q311.48987,1101.2659,313.3066,1097.8928Q315.23672,1093.5773,315.23672,1092.1224 Z"/> </g> <g style="fill:rgb(255,171,140); fill-opacity:1.0; stroke-linejoin: miter"> <path d="M440.44446,1123.0728Q440.84656,1122.7354,441.1691,1122.5652Q443.60153,1120.8357,446.29843,1122.4154Q448.27936,1123.3776,452.95334,1130.0903L453.58554,1130.1217Q458.6904,1130.325,460.02762,1131.8586Q461.6539,1133.4423,462.6885,1137.2772Q467.31918,1140.7603,468.69528,1143.7878Q469.48605,1145.7676,469.23642,1147.9901Q469.20682,1149.4784,467.88187,1154.1494Q468.33035,1157.61,468.0222,1159.0851Q467.6843,1160.8295,467.1677,1161.6754Q466.17667,1163.371,464.3884,1164.8712Q461.31625,1167.4484,455.89145,1169.4487Q447.2269,1172.9271,427.60107,1178.3008L410.28107,1156.9008L420.68472,1148.2L421.1139,1139.4906Q430.059,1135.2916,432.80756,1132.986Q433.0092,1132.8168,433.17755,1132.6578Q434.48523,1131.4971,435.28522,1130.3223Q438.22757,1125.2927,438.51407,1125.0522Q438.54535,1125.026,438.5448,1125.057Q439.65002,1123.739,440.44446,1123.0728 Z"/> </g> <g style="fill:rgb(255,255,255); fill-opacity:1.0; stroke-linejoin: miter"> <path d="M431.4214,1179.6659L421.66812,1167.5737L411.9155,1155.4811Q407.16913,1159.3091,402.42233,1163.1375Q412.17426,1175.2307,421.92752,1187.323Q426.67374,1183.4945,431.4214,1179.6659 Z"/> </g> <g style="fill:rgb(60,70,79); fill-opacity:1.0; stroke-linejoin: miter"> <path d="M401.88544,1154.559L401.46744,1154.9847Q377.28152,1178.5212,343.1378,1173.1262Q327.20267,1170.1241,314.13232,1159.579Q303.13596,1150.3832,297.1356,1138.2584L265.48657,1168.0026Q274.819,1182.1138,287.30582,1192.3248L298.31735,1200.248L310.0792,1206.6293L322.43304,1211.4525L335.21915,1214.703L348.2787,1216.3651L361.4526,1216.4235L374.58218,1214.8628L387.50845,1211.6674L400.07202,1206.8226L412.1142,1200.3119Q426.18286,1190.6613,429.42374,1186.8496L401.88544,1154.559 Z"/> </g> <g style="fill:rgb(32,68,59); fill-opacity:1.0; stroke-linejoin: miter"> <path d="M820.5635,1172.4983L827.8071,1171.7137Q849.69775,1166.1355,862.8225,1139.0698Q875.93665,1111.8168,873.45807,1074.885Q869.99347,1039.6388,853.1837,1018.50696Q847.74994,1011.73596,841.34235,1007.3524L834.75476,1003.66833Q827.9554,1000.6322,820.5638,1000.59814Q797.8799,1001.5199,782.81696,1025.7722Q767.75433,1050.0249,767.1818,1086.548Q767.75433,1123.0717,782.817,1147.3243Q797.87964,1171.5769,820.5635,1172.4983"/> </g> <g style="fill:rgb(196,144,105); fill-opacity:1.0; stroke-linejoin: miter"> <path d="M663.7447,1054.4595Q663.3426,1054.7969,663.0201,1054.967Q660.5877,1056.6963,657.8906,1055.1167Q655.90985,1054.1545,651.2358,1047.4418L650.6036,1047.4104Q645.4988,1047.2073,644.16156,1045.6736Q642.5354,1044.0898,641.5007,1040.2549Q636.87024,1036.772,635.49414,1033.7444Q634.7033,1031.7645,634.9528,1029.5422Q634.98254,1028.0537,636.3074,1023.3827Q635.8592,1019.92224,636.16705,1018.447Q636.50507,1016.70264,637.0215,1015.8563Q638.0125,1014.1609,639.8009,1012.66077Q642.87305,1010.08374,648.29785,1008.0836Q656.9624,1004.605,676.58826,999.2313L693.9085,1020.6315L683.5048,1029.3324L683.0756,1038.0416Q674.1302,1042.2406,671.3818,1044.5463Q671.18,1044.7152,671.0116,1044.8741Q669.704,1046.035,668.9041,1047.2097Q665.96173,1052.2395,665.67523,1052.48Q665.644,1052.5061,665.64435,1052.4752Q664.5392,1053.7931,663.7447,1054.4595 Z"/> </g> <g style="fill:rgb(255,255,255); fill-opacity:1.0; stroke-linejoin: miter"> <path d="M672.7679,997.86597L682.5214,1009.9585L692.27405,1022.05115Q697.0204,1018.22327,701.767,1014.3948Q692.0152,1002.30164,682.2619,990.20935Q677.51556,994.0377,672.7679,997.86597 Z"/> </g> <g style="fill:rgb(32,68,59); fill-opacity:1.0; stroke-linejoin: miter"> <path d="M702.30396,1022.9735L702.7221,1022.5476Q726.908,999.01086,761.05176,1004.4061Q776.9868,1007.40796,790.0572,1017.9531Q801.0537,1027.1492,807.0539,1039.2737L838.703,1009.52954Q829.3707,995.41846,816.884,985.2074L805.8724,977.2842L794.11035,970.9031L781.75635,966.0796L768.9703,962.8291L755.9108,961.16724L742.7367,961.1089L729.6071,962.6697L716.6808,965.86487L704.1175,970.7097L692.07513,977.22034Q678.00665,986.8707,674.7656,990.6825L702.30396,1022.9735 Z"/> </g> <g style="fill:rgb(196,144,105); fill-opacity:1.0; stroke-linejoin: miter"> <path d="M817.124,1135.275L822.80615,1134.8928Q839.9779,1132.175,850.27325,1118.9889Q860.5604,1105.7112,858.6161,1087.7183Q855.89844,1070.5466,842.7122,1060.2513Q838.4499,1056.9525,833.4234,1054.8169L828.2559,1053.022Q822.9223,1051.5428,817.124,1051.5264Q799.3301,1051.9755,787.51434,1063.791Q775.69867,1075.6066,775.2496,1093.4006Q775.6986,1111.1946,787.5144,1123.0105Q799.3301,1134.826,817.124,1135.275"/> </g> <g style="fill:rgb(0,0,0); fill-opacity:1.0; stroke-linejoin: miter"> <path d="M788.9526,1092.1226Q788.9526,1091.762,789.07117,1091.577Q789.00665,1091.4299,789.00665,1091.2312Q789.00665,1089.9556,791.66504,1086.5552Q793.8625,1084.2897,800.89606,1079.5868Q802.78546,1078.2126,804.20496,1076.7168Q805.4752,1075.9838,806.51227,1071.98Q806.6051,1071.5262,806.6051,1071.0177Q806.605,1066.1155,797.9701,1056.1394Q806.47687,1051.795,817.124,1051.5264Q822.9223,1051.5428,828.2559,1053.022L833.4234,1054.8169Q838.4499,1056.9525,842.7122,1060.2513Q855.89844,1070.5466,858.6161,1087.7183Q858.92523,1090.5786,858.92523,1093.3196Q858.92523,1107.822,850.27325,1118.9889Q839.9779,1132.175,822.80615,1134.8928L817.124,1135.275Q803.5104,1134.9315,793.3959,1127.9347Q795.2573,1127.0562,796.9169,1126.124Q800.8984,1123.7759,802.09174,1120.594Q802.4735,1119.938,802.4735,1118.9225Q802.4735,1117.0508,801.1768,1113.9574Q800.1299,1111.8046,798.58154,1109.4958Q792.6995,1101.2661,790.88275,1097.893Q788.9526,1093.5773,788.9526,1092.1226 Z"/> </g> <g style="fill:rgb(196,144,105); fill-opacity:1.0; stroke-linejoin: miter"> <path d="M663.7448,1123.073Q663.3427,1122.7357,663.02014,1122.5656Q660.5875,1120.8358,657.8906,1122.4158Q655.9097,1123.3777,651.23584,1130.0905L650.60364,1130.1217Q645.49884,1130.325,644.1616,1131.8586Q642.5353,1133.4424,641.50073,1137.2772Q636.8701,1140.7603,635.494,1143.788Q634.7032,1145.7677,634.9528,1147.9901Q634.9824,1149.4785,636.3074,1154.1495Q635.85895,1157.6101,636.1668,1159.0852Q636.5047,1160.8296,637.02124,1161.6758Q638.0124,1163.3711,639.80066,1164.8715Q642.8728,1167.4485,648.2976,1169.4489Q656.96216,1172.9274,676.5881,1178.301L693.9083,1156.9012L683.5047,1148.2004L683.07556,1139.4912Q674.1304,1135.292,671.3818,1132.9863Q671.1801,1132.8173,671.0118,1132.6583Q669.7041,1131.4974,668.90405,1130.3228Q665.9616,1125.293,665.6752,1125.0525Q665.6439,1125.0262,665.6444,1125.0573Q664.53925,1123.7394,663.7448,1123.073 Z"/> </g> <g style="fill:rgb(255,255,255); fill-opacity:1.0; stroke-linejoin: miter"> <path d="M672.7678,1179.6663L682.52106,1167.5742L692.274,1155.4814Q697.01996,1159.3094,701.76685,1163.1377Q692.0151,1175.2311,682.2618,1187.3235Q677.51544,1183.4951,672.7678,1179.6663 Z"/> </g> <g style="fill:rgb(32,68,59); fill-opacity:1.0; stroke-linejoin: miter"> <path d="M702.304,1154.5592L702.72205,1154.985Q726.90765,1178.5214,761.05145,1173.1263Q776.9865,1170.1244,790.0569,1159.5793Q801.0536,1150.3835,807.0539,1138.2587L838.7028,1168.0028Q829.3704,1182.114,816.8837,1192.3251L805.8722,1200.2483L794.11035,1206.6296L781.7564,1211.4526L768.9703,1214.7031L755.9108,1216.3651L742.7368,1216.4235L729.60724,1214.8628L716.68097,1211.6675L704.11743,1206.8228L692.07513,1200.3123Q678.0065,1190.6617,674.76544,1186.85L702.304,1154.5592 Z"/> </g> </g> </svg>